<svg xmlns="http://www.w3.org/2000/svg" xmlns:xlink="http://www.w3.org/1999/xlink" preserveAspectRatio="xMidYMid" width="24" height="37" viewBox="0 0 24 37">
  <defs>
    <style>
      .cls-1 {
        fill: #353535;
        fill-rule: evenodd;
      }
    </style>
  </defs>
  <path d="M22.514,18.252 C20.600,23.160 18.087,27.759 15.467,32.300 C14.690,33.646 13.891,34.979 13.071,36.298 C12.493,37.231 11.485,37.236 10.912,36.300 C7.366,30.502 3.993,24.607 1.467,18.255 C0.757,16.470 0.096,14.651 0.013,12.700 C-0.130,9.377 0.914,6.447 3.133,4.038 C6.361,0.533 10.363,-0.767 14.936,0.432 C19.565,1.646 22.465,4.787 23.673,9.510 C23.887,10.347 23.936,11.227 23.999,11.664 C23.990,14.274 23.285,16.276 22.514,18.252 ZM12.363,2.495 C6.891,2.278 2.333,6.777 2.402,12.369 C2.422,14.029 3.017,15.569 3.607,17.088 C5.289,21.422 7.474,25.501 9.737,29.537 C10.451,30.811 11.192,32.069 11.971,33.419 C12.123,33.183 12.217,33.053 12.296,32.914 C13.264,31.221 14.257,29.539 15.192,27.827 C17.307,23.956 19.383,20.059 20.801,15.853 C21.207,14.648 21.564,13.347 21.559,12.093 C21.539,6.914 17.424,2.695 12.363,2.495 ZM11.986,19.229 C8.209,19.219 5.150,16.085 5.171,12.248 C5.193,8.432 8.257,5.328 11.999,5.330 C15.756,5.333 18.840,8.492 18.819,12.316 C18.798,16.136 15.731,19.239 11.986,19.229 ZM11.983,7.782 C9.577,7.783 7.603,9.799 7.595,12.266 C7.588,14.754 9.560,16.780 11.998,16.790 C14.383,16.800 16.379,14.759 16.389,12.302 C16.399,9.817 14.415,7.782 11.983,7.782 Z" class="cls-1"/>
</svg>
