<svg xmlns="http://www.w3.org/2000/svg" xmlns:xlink="http://www.w3.org/1999/xlink" preserveAspectRatio="xMidYMid" width="37" height="37" viewBox="0 0 37 37">
  <defs>
    <style>
      .cls-1 {
        fill: #353535;
        fill-rule: evenodd;
      }
    </style>
  </defs>
  <path d="M35.049,12.765 C34.706,13.133 34.362,13.193 34.069,12.938 C33.775,12.683 33.797,12.337 34.131,11.952 C36.312,9.435 36.321,6.294 34.145,3.819 C33.862,3.497 33.732,3.174 34.046,2.822 C34.299,2.538 34.721,2.618 35.065,2.992 C36.336,4.373 36.965,6.010 36.999,7.895 C36.953,9.751 36.328,11.389 35.049,12.765 ZM31.489,11.708 C31.142,11.420 31.193,11.071 31.488,10.770 C32.985,9.242 32.985,6.674 31.493,5.147 C31.200,4.846 31.140,4.504 31.482,4.208 C31.822,3.913 32.136,4.037 32.420,4.342 C33.385,5.382 33.850,6.613 33.847,8.092 C33.824,9.383 33.343,10.558 32.432,11.561 C32.154,11.867 31.831,11.992 31.489,11.708 ZM25.901,37.000 C20.936,37.000 15.971,37.001 11.006,37.000 C9.130,37.000 8.017,35.880 8.017,33.992 C8.016,28.821 8.016,23.651 8.016,18.480 C8.016,13.309 8.016,8.138 8.017,2.968 C8.017,1.124 9.142,0.003 10.993,0.003 C16.009,0.002 21.025,0.002 26.042,0.003 C27.850,0.003 28.980,1.138 28.980,2.954 C28.980,13.279 28.980,23.603 28.980,33.927 C28.980,35.914 27.891,37.000 25.901,37.000 ZM18.502,35.150 C19.841,35.148 20.954,34.043 20.964,32.705 C20.975,31.344 19.854,30.215 18.494,30.217 C17.154,30.219 16.041,31.325 16.032,32.662 C16.023,34.025 17.142,35.152 18.502,35.150 ZM18.424,1.854 C17.638,1.850 16.851,1.846 16.064,1.856 C15.685,1.861 15.436,2.072 15.427,2.450 C15.417,2.860 15.679,3.069 16.079,3.082 C16.472,3.094 16.866,3.085 17.259,3.085 C17.652,3.085 18.046,3.091 18.439,3.083 C18.841,3.075 19.107,2.867 19.102,2.462 C19.097,2.056 18.826,1.856 18.424,1.854 ZM21.291,1.994 C20.878,1.913 20.430,1.913 20.017,1.995 C19.893,2.019 19.738,2.432 19.778,2.630 C19.864,3.058 20.246,3.118 20.636,3.081 C21.029,3.116 21.438,3.085 21.534,2.627 C21.576,2.430 21.416,2.018 21.291,1.994 ZM27.719,4.958 C21.567,4.958 15.444,4.958 9.287,4.958 C9.287,12.781 9.287,20.561 9.287,28.325 C15.460,28.325 21.595,28.325 27.719,28.325 C27.719,20.516 27.719,12.748 27.719,4.958 ZM18.521,31.453 C19.190,31.465 19.753,32.055 19.730,32.719 C19.707,33.390 19.115,33.943 18.450,33.915 C17.798,33.887 17.261,33.324 17.267,32.674 C17.273,32.004 17.852,31.439 18.521,31.453 ZM5.512,11.542 C5.154,11.828 4.852,11.687 4.570,11.394 C3.681,10.471 3.148,9.141 3.145,7.812 C3.151,6.455 3.595,5.264 4.504,4.254 C4.869,3.848 5.226,3.776 5.521,4.031 C5.828,4.295 5.802,4.634 5.440,5.059 C3.998,6.749 4.013,8.856 5.478,10.557 C5.806,10.939 5.826,11.291 5.512,11.542 ZM2.889,11.974 C3.176,12.277 3.260,12.616 2.934,12.919 C2.612,13.220 2.282,13.123 1.992,12.818 C1.226,12.011 0.646,11.085 0.337,10.019 C-0.422,7.399 0.110,5.052 1.923,3.009 C2.071,2.841 2.283,2.731 2.516,2.556 C2.731,2.719 3.015,2.826 3.037,2.974 C3.076,3.224 3.032,3.570 2.878,3.750 C2.200,4.543 1.669,5.401 1.424,6.424 C0.943,8.433 1.393,10.213 2.719,11.782 C2.774,11.848 2.830,11.913 2.889,11.974 Z" class="cls-1"/>
</svg>
