<svg xmlns="http://www.w3.org/2000/svg" xmlns:xlink="http://www.w3.org/1999/xlink" preserveAspectRatio="xMidYMid" width="16" height="16" viewBox="0 0 16 16">
  <defs>
    <style>
      .cls-1 {
        fill: #4b4b4b;
        fill-rule: evenodd;
      }
    </style>
  </defs>
  <path d="M15.553,15.552 C14.968,16.137 14.018,16.137 13.433,15.552 L9.764,11.882 C10.614,11.336 11.337,10.611 11.884,9.762 L15.553,13.431 C16.139,14.017 16.139,14.966 15.553,15.552 ZM5.997,11.992 C2.685,11.992 -0.000,9.307 -0.000,5.995 C-0.000,2.683 2.685,-0.002 5.997,-0.002 C9.309,-0.002 11.994,2.683 11.994,5.995 C11.994,9.307 9.309,11.992 5.997,11.992 ZM5.997,1.497 C3.517,1.497 1.499,3.515 1.499,5.995 C1.499,8.476 3.517,10.493 5.997,10.493 C8.477,10.493 10.495,8.476 10.495,5.995 C10.495,3.515 8.477,1.497 5.997,1.497 Z" class="cls-1"/>
</svg>
